<mxfile host="www.draw.io" modified="2020-03-05T08:33:32.439Z" agent="Mozilla/5.0 (Windows NT 10.0; Win64; x64) AppleWebKit/537.36 (KHTML, like Gecko) Chrome/80.0.3987.122 Safari/537.36" etag="kus33s03YiMd4un0S4sQ" version="12.7.9" type="github">
  <diagram id="dvhuUggSfOigf5erqyBN" name="Page-1">
    <mxGraphModel dx="1038" dy="547" grid="1" gridSize="10" guides="1" tooltips="1" connect="1" arrows="1" fold="1" page="1" pageScale="1" pageWidth="1169" pageHeight="827" math="0" shadow="0">
      <root>
        <mxCell id="0" />
        <mxCell id="1" parent="0" />
        <mxCell id="toRoGR-CIT3EgH5CwFJb-1" value="" style="rounded=1;whiteSpace=wrap;html=1;fillColor=#dae8fc;strokeColor=#6c8ebf;" vertex="1" parent="1">
          <mxGeometry x="120" y="80" width="430" height="400" as="geometry" />
        </mxCell>
        <mxCell id="toRoGR-CIT3EgH5CwFJb-2" value="Kubernetes Cluster" style="ellipse;whiteSpace=wrap;html=1;aspect=fixed;fillColor=#d5e8d4;strokeColor=#82b366;" vertex="1" parent="1">
          <mxGeometry x="160" y="170" width="80" height="80" as="geometry" />
        </mxCell>
        <mxCell id="toRoGR-CIT3EgH5CwFJb-3" value="Platform Instance" style="text;html=1;strokeColor=none;fillColor=none;align=center;verticalAlign=middle;whiteSpace=wrap;rounded=0;" vertex="1" parent="1">
          <mxGeometry x="170" y="100" width="120" height="30" as="geometry" />
        </mxCell>
        <mxCell id="toRoGR-CIT3EgH5CwFJb-4" value="Message Queues" style="ellipse;whiteSpace=wrap;html=1;aspect=fixed;fillColor=#d5e8d4;strokeColor=#82b366;" vertex="1" parent="1">
          <mxGeometry x="290" y="170" width="80" height="80" as="geometry" />
        </mxCell>
        <mxCell id="toRoGR-CIT3EgH5CwFJb-5" value="Data" style="ellipse;whiteSpace=wrap;html=1;aspect=fixed;fillColor=#d5e8d4;strokeColor=#82b366;" vertex="1" parent="1">
          <mxGeometry x="420" y="170" width="80" height="80" as="geometry" />
        </mxCell>
        <mxCell id="toRoGR-CIT3EgH5CwFJb-6" value="Jenkins Pipeline" style="rounded=1;whiteSpace=wrap;html=1;fillColor=#e1d5e7;strokeColor=#9673a6;" vertex="1" parent="1">
          <mxGeometry x="160" y="290" width="350" height="60" as="geometry" />
        </mxCell>
        <mxCell id="toRoGR-CIT3EgH5CwFJb-7" value="Private Repos" style="ellipse;whiteSpace=wrap;html=1;aspect=fixed;fillColor=#fff2cc;strokeColor=#d6b656;" vertex="1" parent="1">
          <mxGeometry x="160" y="374" width="80" height="80" as="geometry" />
        </mxCell>
        <mxCell id="toRoGR-CIT3EgH5CwFJb-8" value="SonarQube" style="ellipse;whiteSpace=wrap;html=1;aspect=fixed;fillColor=#fff2cc;strokeColor=#d6b656;" vertex="1" parent="1">
          <mxGeometry x="295" y="380" width="80" height="80" as="geometry" />
        </mxCell>
        <mxCell id="toRoGR-CIT3EgH5CwFJb-9" value="Tools" style="ellipse;whiteSpace=wrap;html=1;aspect=fixed;fillColor=#fff2cc;strokeColor=#d6b656;" vertex="1" parent="1">
          <mxGeometry x="420" y="380" width="80" height="80" as="geometry" />
        </mxCell>
      </root>
    </mxGraphModel>
  </diagram>
</mxfile>
